<svg width="23" height="22" viewBox="0 0 23 22" fill="none" xmlns="http://www.w3.org/2000/svg">
<path d="M10.746 0.0314236C9.17542 0.194542 7.74931 0.860989 6.59818 1.97018C4.6501 3.85302 3.97433 6.61202 4.82719 9.17528C5.04158 9.81843 5.47966 10.6527 5.85716 11.128C5.93173 11.2212 5.99231 11.3191 5.99231 11.3471C5.99231 11.3704 5.84784 11.4776 5.6754 11.5801C5.23266 11.8457 4.62679 12.2978 4.09084 12.7685C1.91906 14.67 0.534896 17.6667 0.520914 20.4956C0.516254 21.2086 0.516254 21.2226 0.642087 21.4137C1.06619 22.0522 2.01227 22.0009 2.3618 21.3158C2.43171 21.1807 2.46433 20.9803 2.49696 20.4303C2.58084 19.0788 2.86047 17.9929 3.41507 16.879C4.23997 15.2386 5.6987 13.7705 7.32521 12.9503L7.6095 12.8058L8.28061 13.146C10.4804 14.2505 12.8665 14.1713 15.0103 12.913L15.2107 12.7965L15.5789 12.9782C17.1402 13.7705 18.501 15.122 19.3399 16.7253C19.9644 17.9137 20.258 18.9996 20.3466 20.4303C20.3792 20.9803 20.4118 21.1807 20.4817 21.3158C20.8266 21.9916 21.7494 22.0522 22.1875 21.4323C22.318 21.2459 22.3273 21.1946 22.3413 20.7752C22.3739 19.8664 22.1455 18.4776 21.7867 17.3917C21.5676 16.7299 20.9804 15.5135 20.5936 14.9216C20.1741 14.2832 19.6242 13.626 19.0137 13.0342C18.4078 12.4469 17.9791 12.1114 17.2753 11.664L16.8139 11.3704L17.0936 10.9789C17.6575 10.1913 18.1002 9.12868 18.282 8.11735C18.3892 7.53945 18.3845 6.35569 18.2773 5.76381C18.1748 5.20455 17.8952 4.35169 17.6528 3.867C16.9677 2.5108 15.728 1.29441 14.3765 0.665249C13.258 0.143276 11.9251 -0.0897484 10.746 0.0314236ZM12.2187 2.05873C13.2766 2.24049 14.1714 2.70188 14.9218 3.45222C15.5649 4.0907 15.9937 4.85036 16.2593 5.81042C16.3386 6.09937 16.3526 6.29511 16.3572 6.95223C16.3572 7.65596 16.3432 7.79112 16.236 8.19192C15.9937 9.08207 15.537 9.86969 14.8845 10.4989C13.9011 11.4496 12.7686 11.9156 11.4218 11.9156C10.0423 11.9156 8.8352 11.403 7.87048 10.4103C7.24132 9.75784 6.84518 9.06809 6.6075 8.19658C6.50031 7.79112 6.48632 7.66529 6.48632 6.95223C6.49098 6.2485 6.50031 6.10869 6.61216 5.70789C7.27394 3.22851 9.73001 1.62997 12.2187 2.05873Z" fill="#C92071"/>
</svg>
