<svg width="291" height="23" viewBox="0 0 291 23" fill="none" xmlns="http://www.w3.org/2000/svg">
<path d="M8.61294 4.2306L10.4622 8.65038L15.1966 9.06108C15.5249 9.08972 15.6585 9.50343 15.4092 9.72122L11.8182 12.8629L12.8943 17.5367C12.9689 17.8614 12.6204 18.1169 12.3383 17.9443L8.26965 15.4666L4.20097 17.9443C3.91814 18.1162 3.57037 17.8607 3.645 17.5367L4.72113 12.8629L1.12932 9.72047C0.88006 9.50268 1.0129 9.08896 1.342 9.06033L6.07636 8.64962L7.92562 4.2306C8.05398 3.92313 8.48458 3.92313 8.61294 4.2306Z" fill="#F6AA1C" stroke="#F6AA1C"/>
<path d="M27.9962 4.2306L29.8455 8.65038L34.5799 9.06108C34.9082 9.08972 35.0418 9.50343 34.7925 9.72122L31.2015 12.8629L32.2776 17.5367C32.3522 17.8614 32.0037 18.1169 31.7216 17.9443L27.653 15.4666L23.5843 17.9443C23.3014 18.1162 22.9537 17.8607 23.0283 17.5367L24.1044 12.8629L20.5126 9.72047C20.2634 9.50268 20.3962 9.08896 20.7253 9.06033L25.4597 8.64962L27.3089 4.2306C27.4373 3.92313 27.8679 3.92313 27.9962 4.2306Z" fill="#F6AA1C" stroke="#F6AA1C"/>
<path d="M47.381 4.2306L49.2303 8.65038L53.9646 9.06108C54.293 9.08972 54.4266 9.50343 54.1773 9.72122L50.5862 12.8629L51.6624 17.5367C51.737 17.8614 51.3885 18.1169 51.1064 17.9443L47.0377 15.4666L42.969 17.9443C42.6862 18.1162 42.3384 17.8607 42.4131 17.5367L43.4892 12.8629L39.8974 9.72047C39.6481 9.50268 39.781 9.08896 40.1101 9.06033L44.8444 8.64962L46.6937 4.2306C46.822 3.92313 47.2526 3.92313 47.381 4.2306Z" fill="#F6AA1C" stroke="#F6AA1C"/>
<path d="M66.7667 4.2306L68.616 8.65038L73.3504 9.06108C73.6787 9.08972 73.8123 9.50343 73.5631 9.72122L69.972 12.8629L71.0481 17.5367C71.1227 17.8614 70.7742 18.1169 70.4921 17.9443L66.4235 15.4666L62.3548 17.9443C62.0719 18.1162 61.7242 17.8607 61.7988 17.5367L62.8749 12.8629L59.2831 9.72047C59.0339 9.50268 59.1667 9.08896 59.4958 9.06033L64.2302 8.64962L66.0794 4.2306C66.2078 3.92313 66.6384 3.92313 66.7667 4.2306Z" fill="#F6AA1C" stroke="#F6AA1C"/>
<path d="M86.151 4.2306L88.0003 8.65038L92.7346 9.06108C93.063 9.08972 93.1966 9.50343 92.9473 9.72122L89.3563 12.8629L90.4324 17.5367C90.507 17.8614 90.1585 18.1169 89.8764 17.9443L85.8077 15.4666L81.7391 17.9443C81.4562 18.1162 81.1085 17.8607 81.1831 17.5367L82.2592 12.8629L78.6674 9.72047C78.4181 9.50268 78.551 9.08896 78.8801 9.06033L83.6144 8.64962L85.4637 4.2306C85.5921 3.92313 86.0227 3.92313 86.151 4.2306Z" stroke="#F6AA1C"/>
<path d="M181.432 11.7741C181.432 10.5279 181.596 9.38115 181.924 8.33381C182.252 7.28646 182.731 6.32031 183.361 5.43537H184.723C184.478 5.76349 184.249 6.16619 184.037 6.64347C183.825 7.12074 183.639 7.64441 183.48 8.21449C183.321 8.78125 183.197 9.36955 183.107 9.9794C183.018 10.5859 182.973 11.1842 182.973 11.7741C182.973 12.563 183.051 13.3617 183.207 14.1705C183.362 14.9792 183.573 15.7299 183.838 16.4226C184.103 17.1153 184.398 17.6804 184.723 18.1179H183.361C182.731 17.233 182.252 16.2668 181.924 15.2195C181.596 14.1721 181.432 13.0237 181.432 11.7741ZM189.906 5.67898C190.36 5.68229 190.808 5.76515 191.248 5.92756C191.689 6.08996 192.087 6.35511 192.442 6.72301C192.8 7.09091 193.085 7.58807 193.297 8.21449C193.512 8.83759 193.622 9.61316 193.625 10.5412C193.625 11.4328 193.535 12.2266 193.356 12.9226C193.177 13.6153 192.921 14.2003 192.586 14.6776C192.254 15.1548 191.852 15.5178 191.378 15.7663C190.904 16.0149 190.37 16.1392 189.777 16.1392C189.17 16.1392 188.632 16.0199 188.161 15.7812C187.69 15.5426 187.308 15.2128 187.013 14.7919C186.718 14.3677 186.534 13.8804 186.461 13.3303H187.977C188.077 13.7678 188.279 14.1224 188.584 14.3942C188.892 14.6626 189.29 14.7969 189.777 14.7969C190.523 14.7969 191.104 14.4721 191.522 13.8224C191.939 13.1695 192.15 12.258 192.153 11.0881H192.074C191.901 11.3731 191.686 11.6184 191.427 11.8239C191.172 12.0294 190.885 12.1884 190.567 12.3011C190.249 12.4138 189.909 12.4702 189.548 12.4702C188.961 12.4702 188.428 12.326 187.947 12.0376C187.467 11.7493 187.084 11.3532 186.799 10.8494C186.514 10.3456 186.371 9.7706 186.371 9.12429C186.371 8.4813 186.517 7.89796 186.809 7.37429C187.104 6.85062 187.515 6.43632 188.042 6.13139C188.572 5.82315 189.193 5.67235 189.906 5.67898ZM189.911 6.97159C189.523 6.97159 189.174 7.06771 188.862 7.25994C188.554 7.44886 188.31 7.70573 188.131 8.03054C187.952 8.35204 187.863 8.70999 187.863 9.1044C187.863 9.49882 187.949 9.85677 188.121 10.1783C188.297 10.4964 188.536 10.75 188.837 10.9389C189.142 11.1245 189.49 11.2173 189.881 11.2173C190.173 11.2173 190.445 11.161 190.697 11.0483C190.948 10.9356 191.169 10.7798 191.358 10.581C191.547 10.3788 191.694 10.1501 191.8 9.89489C191.906 9.63968 191.959 9.37121 191.959 9.08949C191.959 8.71496 191.87 8.36695 191.691 8.04545C191.515 7.72396 191.273 7.46544 190.965 7.26989C190.657 7.07102 190.305 6.97159 189.911 6.97159ZM199.216 16.169C198.43 16.1657 197.759 15.9586 197.202 15.5476C196.645 15.1366 196.219 14.5384 195.924 13.7528C195.629 12.9673 195.482 12.0211 195.482 10.9141C195.482 9.81037 195.629 8.86742 195.924 8.08523C196.223 7.30303 196.65 6.70644 197.207 6.29545C197.767 5.88447 198.437 5.67898 199.216 5.67898C199.994 5.67898 200.662 5.88613 201.219 6.30043C201.776 6.71141 202.202 7.308 202.497 8.0902C202.795 8.86908 202.944 9.81037 202.944 10.9141C202.944 12.0244 202.797 12.9723 202.502 13.7578C202.207 14.54 201.781 15.1383 201.224 15.5526C200.667 15.9635 199.998 16.169 199.216 16.169ZM199.216 14.8416C199.905 14.8416 200.444 14.5052 200.831 13.8324C201.222 13.1596 201.418 12.1868 201.418 10.9141C201.418 10.0689 201.328 9.35464 201.15 8.77131C200.974 8.18466 200.72 7.74053 200.389 7.43892C200.061 7.134 199.67 6.98153 199.216 6.98153C198.529 6.98153 197.991 7.3196 197.6 7.99574C197.209 8.67187 197.011 9.64465 197.008 10.9141C197.008 11.7625 197.096 12.4801 197.272 13.0668C197.451 13.6501 197.704 14.0926 198.032 14.3942C198.36 14.6925 198.755 14.8416 199.216 14.8416ZM211.155 16.169C210.671 16.169 210.234 16.0795 209.843 15.9006C209.452 15.7183 209.142 15.4548 208.913 15.1101C208.688 14.7654 208.575 14.3428 208.575 13.8423C208.575 13.4115 208.658 13.0568 208.824 12.7784C208.989 12.5 209.213 12.2796 209.495 12.1172C209.776 11.9548 210.091 11.8321 210.439 11.7493C210.787 11.6664 211.142 11.6035 211.503 11.5604C211.961 11.5073 212.332 11.4643 212.617 11.4311C212.902 11.3946 213.109 11.3366 213.238 11.2571C213.368 11.1776 213.432 11.0483 213.432 10.8693V10.8345C213.432 10.4003 213.31 10.0639 213.064 9.82528C212.822 9.58665 212.461 9.46733 211.98 9.46733C211.48 9.46733 211.086 9.57836 210.797 9.80043C210.512 10.0192 210.315 10.2628 210.206 10.5312L208.809 10.2131C208.974 9.74905 209.216 9.37453 209.534 9.08949C209.856 8.80114 210.225 8.59233 210.643 8.46307C211.061 8.33049 211.5 8.2642 211.961 8.2642C212.266 8.2642 212.589 8.30066 212.93 8.37358C213.275 8.44318 213.596 8.57244 213.895 8.76136C214.196 8.95028 214.443 9.22041 214.635 9.57173C214.828 9.91974 214.924 10.3722 214.924 10.929V16H213.472V14.956H213.412C213.316 15.1482 213.172 15.3371 212.98 15.5227C212.788 15.7083 212.541 15.8625 212.239 15.9851C211.937 16.1077 211.576 16.169 211.155 16.169ZM211.478 14.9759C211.889 14.9759 212.241 14.8946 212.532 14.7322C212.827 14.5698 213.051 14.3577 213.203 14.0959C213.359 13.8307 213.437 13.5473 213.437 13.2457V12.2614C213.384 12.3144 213.281 12.3641 213.129 12.4105C212.98 12.4536 212.809 12.4917 212.617 12.5249C212.425 12.5547 212.237 12.5829 212.055 12.6094C211.873 12.6326 211.72 12.6525 211.598 12.669C211.309 12.7055 211.046 12.7668 210.807 12.853C210.572 12.9392 210.383 13.0634 210.24 13.2259C210.101 13.3849 210.032 13.5971 210.032 13.8622C210.032 14.2301 210.167 14.5085 210.439 14.6974C210.711 14.883 211.057 14.9759 211.478 14.9759ZM223.413 8.36364L220.644 16H219.053L216.279 8.36364H217.874L219.808 14.2401H219.888L221.817 8.36364H223.413ZM227.063 16.169C226.579 16.169 226.142 16.0795 225.751 15.9006C225.36 15.7183 225.05 15.4548 224.821 15.1101C224.596 14.7654 224.483 14.3428 224.483 13.8423C224.483 13.4115 224.566 13.0568 224.732 12.7784C224.897 12.5 225.121 12.2796 225.403 12.1172C225.685 11.9548 225.999 11.8321 226.347 11.7493C226.695 11.6664 227.05 11.6035 227.411 11.5604C227.869 11.5073 228.24 11.4643 228.525 11.4311C228.81 11.3946 229.017 11.3366 229.146 11.2571C229.276 11.1776 229.34 11.0483 229.34 10.8693V10.8345C229.34 10.4003 229.218 10.0639 228.972 9.82528C228.731 9.58665 228.369 9.46733 227.889 9.46733C227.388 9.46733 226.994 9.57836 226.705 9.80043C226.42 10.0192 226.223 10.2628 226.114 10.5312L224.717 10.2131C224.883 9.74905 225.124 9.37453 225.443 9.08949C225.764 8.80114 226.134 8.59233 226.551 8.46307C226.969 8.33049 227.408 8.2642 227.869 8.2642C228.174 8.2642 228.497 8.30066 228.838 8.37358C229.183 8.44318 229.504 8.57244 229.803 8.76136C230.104 8.95028 230.351 9.22041 230.544 9.57173C230.736 9.91974 230.832 10.3722 230.832 10.929V16H229.38V14.956H229.32C229.224 15.1482 229.08 15.3371 228.888 15.5227C228.696 15.7083 228.449 15.8625 228.147 15.9851C227.846 16.1077 227.484 16.169 227.063 16.169ZM227.387 14.9759C227.798 14.9759 228.149 14.8946 228.441 14.7322C228.735 14.5698 228.959 14.3577 229.112 14.0959C229.267 13.8307 229.345 13.5473 229.345 13.2457V12.2614C229.292 12.3144 229.19 12.3641 229.037 12.4105C228.888 12.4536 228.717 12.4917 228.525 12.5249C228.333 12.5547 228.146 12.5829 227.963 12.6094C227.781 12.6326 227.628 12.6525 227.506 12.669C227.218 12.7055 226.954 12.7668 226.715 12.853C226.48 12.9392 226.291 13.0634 226.149 13.2259C226.009 13.3849 225.94 13.5971 225.94 13.8622C225.94 14.2301 226.076 14.5085 226.347 14.6974C226.619 14.883 226.966 14.9759 227.387 14.9759ZM234.548 5.81818V16H233.062V5.81818H234.548ZM236.798 16V8.36364H238.285V16H236.798ZM237.549 7.18537C237.29 7.18537 237.068 7.09919 236.883 6.92685C236.7 6.75118 236.609 6.54238 236.609 6.30043C236.609 6.05516 236.7 5.84635 236.883 5.67401C237.068 5.49834 237.29 5.41051 237.549 5.41051C237.807 5.41051 238.028 5.49834 238.21 5.67401C238.396 5.84635 238.488 6.05516 238.488 6.30043C238.488 6.54238 238.396 6.75118 238.21 6.92685C238.028 7.09919 237.807 7.18537 237.549 7.18537ZM242.757 16.169C242.273 16.169 241.835 16.0795 241.444 15.9006C241.053 15.7183 240.743 15.4548 240.515 15.1101C240.289 14.7654 240.176 14.3428 240.176 13.8423C240.176 13.4115 240.259 13.0568 240.425 12.7784C240.591 12.5 240.815 12.2796 241.096 12.1172C241.378 11.9548 241.693 11.8321 242.041 11.7493C242.389 11.6664 242.743 11.6035 243.105 11.5604C243.562 11.5073 243.933 11.4643 244.218 11.4311C244.503 11.3946 244.711 11.3366 244.84 11.2571C244.969 11.1776 245.034 11.0483 245.034 10.8693V10.8345C245.034 10.4003 244.911 10.0639 244.666 9.82528C244.424 9.58665 244.063 9.46733 243.582 9.46733C243.082 9.46733 242.687 9.57836 242.399 9.80043C242.114 10.0192 241.917 10.2628 241.807 10.5312L240.41 10.2131C240.576 9.74905 240.818 9.37453 241.136 9.08949C241.458 8.80114 241.827 8.59233 242.245 8.46307C242.662 8.33049 243.101 8.2642 243.562 8.2642C243.867 8.2642 244.19 8.30066 244.532 8.37358C244.876 8.44318 245.198 8.57244 245.496 8.76136C245.798 8.95028 246.045 9.22041 246.237 9.57173C246.429 9.91974 246.525 10.3722 246.525 10.929V16H245.074V14.956H245.014C244.918 15.1482 244.774 15.3371 244.581 15.5227C244.389 15.7083 244.142 15.8625 243.841 15.9851C243.539 16.1077 243.178 16.169 242.757 16.169ZM243.08 14.9759C243.491 14.9759 243.842 14.8946 244.134 14.7322C244.429 14.5698 244.653 14.3577 244.805 14.0959C244.961 13.8307 245.039 13.5473 245.039 13.2457V12.2614C244.986 12.3144 244.883 12.3641 244.73 12.4105C244.581 12.4536 244.411 12.4917 244.218 12.5249C244.026 12.5547 243.839 12.5829 243.657 12.6094C243.474 12.6326 243.322 12.6525 243.199 12.669C242.911 12.7055 242.647 12.7668 242.409 12.853C242.173 12.9392 241.984 13.0634 241.842 13.2259C241.703 13.3849 241.633 13.5971 241.633 13.8622C241.633 14.2301 241.769 14.5085 242.041 14.6974C242.313 14.883 242.659 14.9759 243.08 14.9759ZM251.972 16.1541C251.233 16.1541 250.596 15.9867 250.063 15.652C249.532 15.3139 249.125 14.8482 248.84 14.255C248.555 13.6617 248.412 12.9822 248.412 12.2166C248.412 11.4411 248.558 10.7566 248.85 10.1634C249.141 9.56676 249.552 9.10109 250.083 8.76633C250.613 8.43158 251.238 8.2642 251.957 8.2642C252.537 8.2642 253.054 8.37192 253.508 8.58736C253.962 8.79948 254.328 9.09777 254.607 9.48224C254.888 9.86671 255.056 10.3158 255.109 10.8295H253.662C253.583 10.4716 253.4 10.1634 253.115 9.90483C252.834 9.64631 252.456 9.51705 251.982 9.51705C251.567 9.51705 251.204 9.62642 250.893 9.84517C250.585 10.0606 250.344 10.3688 250.172 10.7699C250 11.1676 249.914 11.6383 249.914 12.1818C249.914 12.7386 249.998 13.2192 250.167 13.6236C250.336 14.0279 250.575 14.3411 250.883 14.5632C251.195 14.7853 251.561 14.8963 251.982 14.8963C252.263 14.8963 252.519 14.8449 252.747 14.7422C252.979 14.6361 253.173 14.4853 253.329 14.2898C253.488 14.0942 253.599 13.8589 253.662 13.5838H255.109C255.056 14.0777 254.895 14.5185 254.627 14.9062C254.358 15.294 253.999 15.599 253.548 15.821C253.1 16.0431 252.575 16.1541 251.972 16.1541ZM251.435 15.9602H252.409L252.33 16.3679C252.618 16.4143 252.87 16.5303 253.085 16.7159C253.301 16.9015 253.409 17.1816 253.409 17.5561C253.412 18.0036 253.218 18.3665 252.827 18.6449C252.439 18.9233 251.877 19.0625 251.142 19.0625L251.112 18.2322C251.456 18.2322 251.735 18.1825 251.947 18.0831C252.162 17.9837 252.272 17.8229 252.275 17.6009C252.278 17.3788 252.195 17.223 252.026 17.1335C251.861 17.044 251.596 16.9811 251.231 16.9446L251.435 15.9602ZM260.165 16.1541C259.449 16.1541 258.824 15.9901 258.291 15.6619C257.757 15.3338 257.343 14.8748 257.048 14.2848C256.753 13.6948 256.605 13.0054 256.605 12.2166C256.605 11.4245 256.753 10.7318 257.048 10.1385C257.343 9.54522 257.757 9.08452 258.291 8.75639C258.824 8.42827 259.449 8.2642 260.165 8.2642C260.881 8.2642 261.506 8.42827 262.039 8.75639C262.573 9.08452 262.987 9.54522 263.282 10.1385C263.577 10.7318 263.725 11.4245 263.725 12.2166C263.725 13.0054 263.577 13.6948 263.282 14.2848C262.987 14.8748 262.573 15.3338 262.039 15.6619C261.506 15.9901 260.881 16.1541 260.165 16.1541ZM260.17 14.9062C260.634 14.9062 261.019 14.7836 261.324 14.5384C261.628 14.2931 261.854 13.9666 262 13.5589C262.149 13.1513 262.223 12.7022 262.223 12.2116C262.223 11.7244 262.149 11.277 262 10.8693C261.854 10.4583 261.628 10.1286 261.324 9.87997C261.019 9.63139 260.634 9.5071 260.17 9.5071C259.703 9.5071 259.315 9.63139 259.007 9.87997C258.702 10.1286 258.475 10.4583 258.326 10.8693C258.18 11.277 258.107 11.7244 258.107 12.2116C258.107 12.7022 258.18 13.1513 258.326 13.5589C258.475 13.9666 258.702 14.2931 259.007 14.5384C259.315 14.7836 259.703 14.9062 260.17 14.9062ZM258.669 7.43892L257.669 7.40909C257.669 6.8589 257.817 6.41974 258.112 6.09162C258.41 5.76349 258.778 5.59943 259.216 5.59943C259.418 5.59943 259.595 5.63423 259.748 5.70383C259.9 5.77012 260.042 5.84801 260.175 5.9375C260.311 6.02367 260.445 6.10156 260.578 6.17116C260.714 6.23745 260.864 6.2706 261.03 6.2706C261.222 6.2706 261.378 6.19768 261.498 6.05185C261.62 5.90601 261.681 5.72538 261.681 5.50994L262.661 5.57457C262.661 6.12808 262.512 6.56392 262.213 6.8821C261.915 7.19697 261.549 7.35606 261.115 7.35938C260.879 7.35938 260.684 7.32623 260.528 7.25994C260.376 7.19034 260.24 7.11245 260.12 7.02628C260.001 6.93679 259.878 6.85724 259.752 6.78764C259.627 6.71804 259.476 6.68324 259.3 6.68324C259.114 6.68324 258.962 6.75615 258.843 6.90199C258.727 7.04451 258.669 7.22348 258.669 7.43892ZM268.925 16.1541C268.173 16.1541 267.525 15.9934 266.981 15.6719C266.441 15.3471 266.023 14.8913 265.729 14.3047C265.437 13.7147 265.291 13.0237 265.291 12.2315C265.291 11.4493 265.437 10.7599 265.729 10.1634C266.023 9.56676 266.434 9.10109 266.961 8.76633C267.492 8.43158 268.112 8.2642 268.821 8.2642C269.252 8.2642 269.669 8.33546 270.074 8.47798C270.478 8.6205 270.841 8.84422 271.162 9.14915C271.484 9.45407 271.738 9.85014 271.923 10.3374C272.109 10.8213 272.202 11.4096 272.202 12.1023V12.6293H266.131V11.5156H270.745C270.745 11.1245 270.665 10.7782 270.506 10.4766C270.347 10.1716 270.123 9.93134 269.835 9.75568C269.55 9.58002 269.215 9.49219 268.831 9.49219C268.413 9.49219 268.049 9.59493 267.737 9.80043C267.429 10.0026 267.19 10.2678 267.021 10.5959C266.855 10.9207 266.773 11.2737 266.773 11.6548V12.5249C266.773 13.0353 266.862 13.4695 267.041 13.8274C267.223 14.1854 267.477 14.4588 267.802 14.6477C268.126 14.8333 268.506 14.9261 268.94 14.9261C269.222 14.9261 269.479 14.8864 269.711 14.8068C269.943 14.724 270.143 14.6013 270.312 14.4389C270.481 14.2765 270.611 14.076 270.7 13.8374L272.107 14.0909C271.994 14.5052 271.792 14.8681 271.501 15.1797C271.212 15.4879 270.849 15.7282 270.412 15.9006C269.978 16.0696 269.482 16.1541 268.925 16.1541ZM279.823 10.228L278.476 10.4666C278.42 10.2943 278.33 10.1302 278.207 9.97443C278.088 9.81865 277.926 9.69105 277.72 9.59162C277.515 9.49219 277.258 9.44247 276.95 9.44247C276.529 9.44247 276.177 9.53693 275.896 9.72585C275.614 9.91146 275.473 10.1518 275.473 10.4467C275.473 10.7019 275.567 10.9074 275.756 11.0632C275.945 11.219 276.25 11.3466 276.671 11.446L277.884 11.7244C278.587 11.8868 279.111 12.1371 279.455 12.4751C279.8 12.8132 279.972 13.2524 279.972 13.7926C279.972 14.25 279.84 14.6577 279.575 15.0156C279.313 15.3703 278.946 15.6487 278.476 15.8509C278.009 16.053 277.467 16.1541 276.85 16.1541C275.995 16.1541 275.297 15.9718 274.757 15.6072C274.217 15.2393 273.885 14.7173 273.763 14.0412L275.2 13.8224C275.289 14.197 275.473 14.4804 275.751 14.6726C276.03 14.8615 276.393 14.956 276.84 14.956C277.327 14.956 277.717 14.8549 278.009 14.6527C278.3 14.4472 278.446 14.197 278.446 13.902C278.446 13.6634 278.357 13.4628 278.178 13.3004C278.002 13.138 277.732 13.0154 277.367 12.9325L276.075 12.6491C275.362 12.4867 274.835 12.2282 274.494 11.8736C274.156 11.5189 273.987 11.0698 273.987 10.5263C273.987 10.0755 274.112 9.68111 274.364 9.34304C274.616 9.00497 274.964 8.74148 275.408 8.55256C275.853 8.36032 276.361 8.2642 276.935 8.2642C277.76 8.2642 278.41 8.44318 278.884 8.80114C279.357 9.15578 279.671 9.63139 279.823 10.228ZM288.67 11.7741C288.67 13.0237 288.506 14.1721 288.178 15.2195C287.85 16.2668 287.371 17.233 286.741 18.1179H285.379C285.625 17.7898 285.853 17.3871 286.065 16.9098C286.277 16.4325 286.463 15.9105 286.622 15.3438C286.781 14.7737 286.906 14.1837 286.995 13.5739C287.085 12.964 287.129 12.3641 287.129 11.7741C287.129 10.9886 287.051 10.1915 286.896 9.38281C286.74 8.5741 286.529 7.82339 286.264 7.13068C285.999 6.43797 285.704 5.87287 285.379 5.43537H286.741C287.371 6.32031 287.85 7.28646 288.178 8.33381C288.506 9.38115 288.67 10.5279 288.67 11.7741Z" fill="#8F8F8F"/>
<rect x="107" width="63" height="23" rx="4" fill="#F6AA1C"/>
<path d="M119.577 15.4091V13.2614L123.673 6.81818H125.622V9.68182H124.509L122.301 13.1818V13.2614H128.347V15.4091H119.577ZM124.528 17V14.7528L124.588 13.8182V6.81818H127.173V17H124.528ZM131.268 17.1591C130.883 17.1591 130.553 17.0249 130.278 16.7564C130.006 16.4846 129.872 16.1548 129.876 15.767C129.872 15.3892 130.006 15.0661 130.278 14.7976C130.553 14.5291 130.883 14.3949 131.268 14.3949C131.632 14.3949 131.954 14.5291 132.232 14.7976C132.514 15.0661 132.656 15.3892 132.66 15.767C132.656 16.0256 132.588 16.2609 132.456 16.473C132.327 16.6818 132.157 16.8492 131.949 16.9751C131.74 17.0978 131.513 17.1591 131.268 17.1591ZM134.333 17L138.33 9.08523V9.02557H133.637V6.81818H141.194V9.02557L137.176 17H134.333Z" fill="white"/>
<path d="M151.731 7.17734C151.897 6.94089 152.285 6.94089 152.451 7.17734L154.201 9.6726C154.259 9.7558 154.352 9.8155 154.459 9.83898L157.677 10.5434C157.982 10.6102 158.102 10.9375 157.9 11.1503L155.763 13.3969C155.692 13.4718 155.657 13.5684 155.665 13.6661L155.903 16.5968C155.926 16.8745 155.612 17.0767 155.321 16.9719L152.25 15.8651C152.148 15.8282 152.033 15.8282 151.931 15.8651L148.861 16.9719C148.57 17.0767 148.255 16.8745 148.278 16.5968L148.517 13.6661C148.525 13.5684 148.489 13.4718 148.418 13.3969L146.282 11.1503C146.079 10.9375 146.199 10.6102 146.504 10.5434L149.722 9.83898C149.83 9.8155 149.922 9.7558 149.981 9.6726L151.731 7.17734Z" fill="white"/>
</svg>


